<?xml version="1.0" encoding="UTF-8"?>
<svg id="Vrstva_2" data-name="Vrstva 2" xmlns="http://www.w3.org/2000/svg" viewBox="0 0 58.23 53.45">
  <defs>
    <style>
      .cls-1 {
        fill: #1d1d1b;
      }
    </style>
  </defs>
  <g id="Vrstva_1" data-name="Vrstva 1">
    <path class="cls-1" d="M8.92,34.93c2.48.76,6.04,2.69,4.92,5.57-1.01,2.36-3.2,3.86-5.02,5.79-1.29,1.18-3.78,4.15-2.31,5.4,2.5,1.23,5.92-3.4,8.37-4.66,4.08-2.54,5.22,1.37,9.38,2.29,1.62.36,1.57.22,2.68.14.97-.08,2.16-2.64,2.79-3.5.91-1.41,2.17-.77,3.56-.12,2.43,1.14,15.38,8.22,17.51,7.56,8.1-2.53,5.35-6.56,4.08-7.62-3.74-3.14-15.13-2.15-17-6.09-1.19-2.52,2.38-5.11,2.7-7.88.4-2.49-.52-5.3.72-7.62.98-1.84,3.51-2.36,5.03-.72.57.58.97,1.3,1.31,2.08.78,1.77,1.22,3.99,2.43,5.4,1.28,1.59,3.51,1.59,5.09.5,5.75-3.93,2.55-15.79-2.4-19.08-4.22-3.01-8.94-.46-12.37-2.68-2.73-1.88-2.79-6.45-5.12-8.72-.83-.85-2.08-1.39-3.02-.57-1.79,1.93.03,5.98-.47,8.65-.41,3.59-3.18,5.36-6.51,3.48-2.26-1.29-4.11-3.21-6.11-5.02-1.24-1.12-2.62-2.17-4.27-2.51-2.01-.48-4.23.65-3.18,2.53.76,1.38,2.05,2.46,3.01,3.78,1.24,1.54,2.37,4.09,1.65,5.85-.41,1.13-1.46,1.58-2.53,1.43-1.68-.16-3.62-1.39-5.41-1.01-2.08.54-1.69,2.89-.38,4.08,1.95,1.85,4.87,2.76,6.77,4.6.39.41,1.11,1.05.77,1.58-.37.46-2.01.3-3.94.03-2.05-.27-4.18-.6-6.26-.49-2,.01-4.67,1.1-5.24,2.72-.26.64-.18,1.36.25,1.92,1.87,2.07,5.64,1.85,8.47,2.9h.05Z"/>
  </g>
</svg>